{
  "accessors": [
    {
      "bufferView": 2,
      "componentType": 5126,
      "count": 65532,
      "max": [
        0.6001799702644348,
        -0.135220006108284,
        2.350559949874878
      ],
      "min": [
        -0.019029999151825905,
        -0.7292500138282776,
        0.5235199928283691
      ],
      "type": "VEC3"
    },
    {
      "bufferView": 2,
      "byteOffset": 786384,
      "componentType": 5126,
      "count": 65532,
      "max": [
        0.9999637007713318,
        0.9999911785125732,
        0.999999463558197
      ],
      "min": [
        -0.9999867677688599,
        -0.9999976754188538,
        -0.9996605515480042
      ],
      "type": "VEC3"
    },
    {
      "bufferView": 1,
      "componentType": 5126,
      "count": 65532,
      "max": [
        0.9977560043334961,
        0.9958199858665466
      ],
      "min": [
        0.002113000024110079,
        0.18052099645137787
      ],
      "type": "VEC2"
    },
    {
      "bufferView": 0,
      "componentType": 5125,
      "count": 355350,
      "type": "SCALAR"
    },
    {
      "bufferView": 2,
      "byteOffset": 1572768,
      "componentType": 5126,
      "count": 65532,
      "max": [
        0.599370002746582,
        -0.10542000085115433,
        2.1319100856781006
      ],
      "min": [
        -0.019700000062584877,
        -0.7372300028800964,
        0.5235199928283691
      ],
      "type": "VEC3"
    },
    {
      "bufferView": 2,
      "byteOffset": 2359152,
      "componentType": 5126,
      "count": 65532,
      "max": [
        0.9999974370002747,
        0.9999963045120239,
        0.9999984502792358
      ],
      "min": [
        -0.9999989867210388,
        -0.9999968409538269,
        -0.9996986985206604
      ],
      "type": "VEC3"
    },
    {
      "bufferView": 1,
      "byteOffset": 524256,
      "componentType": 5126,
      "count": 65532,
      "max": [
        0.9960880279541016,
        0.9958069920539856
      ],
      "min": [
        0.002087000058963895,
        0.36484500765800476
      ],
      "type": "VEC2"
    },
    {
      "bufferView": 0,
      "byteOffset": 1421400,
      "componentType": 5125,
      "count": 366996,
      "type": "SCALAR"
    },
    {
      "bufferView": 2,
      "byteOffset": 3145536,
      "componentType": 5126,
      "count": 36549,
      "max": [
        0.5973600149154663,
        -0.12309999763965607,
        2.350559949874878
      ],
      "min": [
        -0.015230000019073486,
        -0.7375500202178955,
        0.5235199928283691
      ],
      "type": "VEC3"
    },
    {
      "bufferView": 2,
      "byteOffset": 3584124,
      "componentType": 5126,
      "count": 36549,
      "max": [
        0.9999387860298157,
        0.9999938607215881,
        0.999998152256012
      ],
      "min": [
        -0.9999904036521912,
        -0.9999898672103882,
        -0.9986010789871216
      ],
      "type": "VEC3"
    },
    {
      "bufferView": 1,
      "byteOffset": 1048512,
      "componentType": 5126,
      "count": 36549,
      "max": [
        0.996783971786499,
        0.8697909712791443
      ],
      "min": [
        0.07136800140142441,
        0.36535900831222534
      ],
      "type": "VEC2"
    },
    {
      "bufferView": 0,
      "byteOffset": 2889384,
      "componentType": 5125,
      "count": 200385,
      "type": "SCALAR"
    }
  ],
  "asset": {
    "extras": {
      "author": "Thomas Flynn (https://sketchfab.com/nebulousflynn)",
      "license": "CC-BY-SA-4.0 (http://creativecommons.org/licenses/by-sa/4.0/)",
      "source": "https://sketchfab.com/3d-models/marble-statue-of-the-hon-mrs-anne-seymour-damer-8774765c08344374a03ec0fdcac26c80",
      "title": "Marble statue of the Hon Mrs Anne Seymour Damer"
    },
    "generator": "Sketchfab-14.29.0",
    "version": "2.0"
  },
  "bufferViews": [
    {
      "buffer": 0,
      "byteLength": 3690924,
      "name": "floatBufferViews",
      "target": 34963
    },
    {
      "buffer": 0,
      "byteLength": 1340904,
      "byteOffset": 3690924,
      "byteStride": 8,
      "name": "floatBufferViews",
      "target": 34962
    },
    {
      "buffer": 0,
      "byteLength": 4022712,
      "byteOffset": 5031828,
      "byteStride": 12,
      "name": "floatBufferViews",
      "target": 34962
    }
  ],
  "buffers": [
    {
      "byteLength": 9054540,
      "uri": "scene.bin"
    }
  ],
  "images": [
    {
      "uri": "textures/main_baseColor.jpeg"
    }
  ],
  "materials": [
    {
      "doubleSided": true,
      "name": "main",
      "pbrMetallicRoughness": {
        "baseColorTexture": {
          "index": 0
        },
        "metallicFactor": 0.0
      }
    }
  ],
  "meshes": [
    {
      "name": "Object_0",
      "primitives": [
        {
          "attributes": {
            "NORMAL": 1,
            "POSITION": 0,
            "TEXCOORD_0": 2
          },
          "indices": 3,
          "material": 0,
          "mode": 4
        }
      ]
    },
    {
      "name": "Object_1",
      "primitives": [
        {
          "attributes": {
            "NORMAL": 5,
            "POSITION": 4,
            "TEXCOORD_0": 6
          },
          "indices": 7,
          "material": 0,
          "mode": 4
        }
      ]
    },
    {
      "name": "Object_2",
      "primitives": [
        {
          "attributes": {
            "NORMAL": 9,
            "POSITION": 8,
            "TEXCOORD_0": 10
          },
          "indices": 11,
          "material": 0,
          "mode": 4
        }
      ]
    }
  ],
  "nodes": [
    {
      "children": [
        1
      ],
      "matrix": [
        1.0,
        0.0,
        0.0,
        0.0,
        0.0,
        2.220446049250313e-16,
        -1.0,
        0.0,
        0.0,
        1.0,
        2.220446049250313e-16,
        0.0,
        0.0,
        0.0,
        0.0,
        1.0
      ],
      "name": "Sketchfab_model"
    },
    {
      "children": [
        2,
        3,
        4
      ],
      "name": "Scaniverse.obj.cleaner.materialmerger.gles"
    },
    {
      "mesh": 0,
      "name": "Object_2"
    },
    {
      "mesh": 1,
      "name": "Object_3"
    },
    {
      "mesh": 2,
      "name": "Object_4"
    }
  ],
  "samplers": [
    {
      "magFilter": 9729,
      "minFilter": 9987,
      "wrapS": 10497,
      "wrapT": 10497
    }
  ],
  "scene": 0,
  "scenes": [
    {
      "name": "Sketchfab_Scene",
      "nodes": [
        0
      ]
    }
  ],
  "textures": [
    {
      "sampler": 0,
      "source": 0
    }
  ]
}
